#!OML:ASF Y:\EmotionMaleHayes\Project 1\Capture day 1\Session 1\Male1.ASF
:FULLY-SPECIFIED
:DEGREES
2503
root -29.6847 17.1048 0.239541 36.1862 85.0467 -682.184
lowerback 6.55914 1.20085 -5.17913
upperback -1.00748 1.1922 0.301889
thorax -4.84896 0.738394 3.09692
lowerneck -20.5345 2.97001 5.16985
upperneck 19.1538 3.59942 -4.40404
head 9.62586 1.56995 -1.87232
rclavicle 4.9075e-016 -6.36111e-015
rhumerus -41.2704 5.38144 -85.8133
rradius 36.0277
rwrist -0.167347
rhand -6.53211 -33.44
rfingers 7.12502
rthumb 19.3208 -62.5002
lclavicle 4.9075e-016 -6.36111e-015
lhumerus -33.6476 -13.4313 87.4031
lradius 37.4792
lwrist 1.94233
lhand -15.6154 -21.9424
lfingers 7.12502
lthumb 10.5711 7.7717
rfemur 7.85947 -6.86973 13.6293
rtibia 5.03482
rfoot -17.9347 -6.91731
rtoes 11.6362
lfemur 10.2943 4.53059 -20.6689
ltibia -0.0151097
lfoot -12.0594 12.6116
ltoes -8.24317
2504
root -29.689 17.1043 0.241129 34.8947 85.0745 -683.531
lowerback 6.43127 1.17894 -5.04487
upperback -0.918943 1.18334 0.295338
thorax -4.67944 0.724507 3.01818
lowerneck -20.5679 2.99431 5.28145
upperneck 19.0412 3.59562 -4.43054
head 9.59483 1.57183 -1.89978
rclavicle 2.4598e-014 -5.76476e-015
rhumerus -41.0565 5.16443 -85.7822
rradius 35.914
rwrist -0.0600186
rhand -6.75594 -33.0028
rfingers 7.12502
rthumb 19.1055 -62.0844
lclavicle 2.4598e-014 -5.76476e-015
lhumerus -33.1897 -12.804 87.2092
lradius 37.1592
lwrist 0.557167
lhand -13.7725 -22.9983
lfingers 7.12502
lthumb 12.3484 6.61703
rfemur 7.77128 -7.06384 13.7216
rtibia 5.07127
rfoot -17.867 -6.73003
rtoes 10.935
lfemur 10.2814 4.32904 -20.6139
ltibia -0.106012
lfoot -12.039 12.805
ltoes -8.24317
2505
root -29.6927 17.1038 0.24289 34.603 85.1074 -683.868
lowerback 6.37355 1.14245 -5.00901
upperback -0.887273 1.14189 0.301296
thorax -4.60909 0.700852 3.00979
lowerneck -20.5326 3.03171 5.36798
upperneck 18.9694 3.63922 -4.51648
head 9.56911 1.58868 -1.93766
rclavicle -7.7495e-015 -1.43125e-014
rhumerus -40.9326 5.07111 -85.7474
rradius 35.7957
rwrist -0.0142829
rhand -6.7397 -32.9963
rfingers 7.12502
rthumb 19.1211 -62.0764
lclavicle -7.7495e-015 -1.43125e-014
lhumerus -33.0259 -12.6147 87.3062
lradius 37.1194
lwrist 0.312237
lhand -14.8684 -22.9506
lfingers 7.12502
lthumb 11.2917 6.72547
rfemur 7.70873 -7.31907 13.708
rtibia 5.10211
rfoot -17.8057 -6.52712
rtoes 11.1572
lfemur 10.1942 4.37091 -20.5571
ltibia -0.0619732
lfoot -11.9306 12.7738
ltoes -8.24317
2506
root -29.6976 17.1052 0.24589 33.5364 85.0986 -684.901
lowerback 7.12947 1.13363 -5.06405
upperback -1.37732 1.07383 0.393787
thorax -5.54992 0.701755 3.13133
lowerneck -20.1008 3.05838 5.41245
upperneck 19.2871 3.73603 -4.62633
head 9.61141 1.63487 -1.9738
rclavicle -1.22377e-015 -9.14409e-015
rhumerus -41.7517 5.17393 -85.722
rradius 35.8102
rwrist 0.168608
rhand -6.59442 -32.8815
rfingers 7.12502
rthumb 19.2609 -61.9477
lclavicle -1.22377e-015 -9.14409e-015
lhumerus -34.0281 -12.9174 87.9744
lradius 37.4203
lwrist 1.27512
lhand -15.8562 -22.4367
lfingers 7.12502
lthumb 10.3389 7.28911
rfemur 7.7278 -7.45472 13.7433
rtibia 5.10313
rfoot -17.7885 -6.30844
rtoes 11.5628
lfemur 10.235 4.42908 -20.4511
ltibia -0.101738
lfoot -11.8866 12.7979
ltoes -8.24317
2507
root -29.7043 17.1069 0.25197 32.3587 85.0424 -686.016
lowerback 7.45881 1.15803 -5.07599
upperback -1.49008 1.08439 0.406869
thorax -5.85818 0.717159 3.14559
lowerneck -20.1138 3.08441 5.45484
upperneck 19.4802 3.75565 -4.56985
head 9.6826 1.65476 -1.95911
rclavicle 9.59757e-015 9.74045e-015
rhumerus -41.9906 5.05017 -85.7004
rradius 35.7993
rwrist 0.347336
rhand -6.54488 -32.5931
rfingers 7.12502
rthumb 19.3085 -61.6545
lclavicle 9.59757e-015 9.74045e-015
lhumerus -34.3416 -13.186 88.3067
lradius 37.5836
lwrist 2.09099
lhand -15.3189 -22.5972
lfingers 7.12502
lthumb 10.8572 7.10214
rfemur 7.77753 -7.58725 13.7714
rtibia 5.11337
rfoot -17.7251 -6.0831
rtoes 11.0827
lfemur 10.3194 4.48574 -20.3434
ltibia -0.136509
lfoot -11.8467 12.8182
ltoes -1.91141
2508
root -29.7117 17.107 0.257823 30.51 85.0742 -687.904
lowerback 7.50797 1.17804 -4.86065
upperback -1.50266 1.12535 0.345832
thorax -5.8966 0.72988 2.95419
lowerneck -20.2391 3.09546 5.52878
upperneck 19.6172 3.69386 -4.35387
head 9.7474 1.65513 -1.90427
rclavicle 5.62188e-015 -1.23246e-014
rhumerus -41.9487 4.79247 -85.8047
rradius 35.6963
rwrist 0.328485
rhand -6.68184 -32.5598
rfingers 7.12502
rthumb 19.1768 -61.6343
lclavicle 5.62188e-015 -1.23246e-014
lhumerus -34.3673 -13.576 88.4637
lradius 37.6
lwrist 2.31739
lhand -14.9328 -22.65
lfingers 7.12502
lthumb 11.2296 7.02947
rfemur 7.7089 -7.5871 13.9971
rtibia 5.1123
rfoot -17.6832 -6.06489
rtoes 11.0972
lfemur 10.2573 4.41965 -20.1434
ltibia -0.112171
lfoot -11.8588 12.9006
ltoes -0.236595
2509
root -29.7168 17.1077 0.26143 27.5764 85.1606 -690.941
lowerback 7.47571 1.1536 -4.53353
upperback -1.54713 1.12511 0.35458
thorax -5.91725 0.719684 2.77925
lowerneck -20.1521 3.11518 5.60883
upperneck 19.6386 3.68662 -4.28586
head 9.73906 1.66733 -1.89528
rclavicle 4.91371e-015 9.93923e-016
rhumerus -41.9338 4.69677 -85.9283
rradius 35.6365
rwrist 0.202884
rhand -6.75145 -32.7271
rfingers 7.12502
rthumb 19.1098 -61.8083
lclavicle 4.91371e-015 9.93923e-016
lhumerus -34.3998 -13.5343 88.5659
lradius 37.5545
lwrist 2.16421
lhand -14.4342 -22.7538
lfingers 7.12502
lthumb 11.7104 6.89893
rfemur 7.63054 -7.36022 14.4158
rtibia 4.92959
rfoot -17.651 -6.15805
rtoes 12.4282
lfemur 10.1628 4.39944 -19.8061
ltibia -0.152297
lfoot -11.6917 12.9673
ltoes -0.722462
2510
root -29.72 17.1089 0.266353 26.9276 85.1534 -691.638
lowerback 7.43615 1.10328 -4.54489
upperback -1.54618 1.06135 0.400924
thorax -5.88957 0.688893 2.84294
lowerneck -20.0507 3.15064 5.62181
upperneck 19.6107 3.75288 -4.34872
head 9.71602 1.69334 -1.91044
rclavicle -4.19311e-015 -4.57205e-015
rhumerus -41.9168 4.68899 -85.9285
rradius 35.6211
rwrist 0.182311
rhand -6.68702 -32.9384
rfingers 7.12502
rthumb 19.1718 -62.0135
lclavicle -4.19311e-015 -4.57205e-015
lhumerus -34.3768 -13.2979 88.702
lradius 37.457
lwrist 2.03592
lhand -13.9172 -22.6837
lfingers 7.12502
lthumb 12.2089 6.94003
rfemur 7.69566 -7.22538 14.5249
rtibia 4.63038
rfoot -17.5396 -6.14818
rtoes 13.2127
lfemur 10.1471 4.40144 -19.7283
ltibia -0.240157
lfoot -11.5526 13.0049
ltoes -1.43058
2511
root -29.7222 17.1107 0.269639 29.6782 85.07 -688.848
lowerback 7.459 1.06694 -4.82542
upperback -1.51561 0.9828 0.346288
thorax -5.86876 0.658035 2.95359
lowerneck -20.0713 3.17225 5.63199
upperneck 19.6689 3.79224 -4.39202
head 9.74367 1.7075 -1.92177
rclavicle -6.26172e-015 9.14409e-015
rhumerus -41.8367 4.58615 -85.9062
rradius 35.5127
rwrist 0.250721
rhand -6.67169 -33.0299
rfingers 7.12502
rthumb 19.1866 -62.1035
lclavicle -6.26172e-015 9.14409e-015
lhumerus -34.3949 -13.232 88.905
lradius 37.4407
lwrist 1.86991
lhand -14.1021 -22.2328
lfingers 7.12502
lthumb 12.0307 7.40137
rfemur 7.85389 -7.2053 14.2214
rtibia 4.40851
rfoot -17.4851 -6.15347
rtoes 13.2987
lfemur 10.1229 4.52847 -19.9757
ltibia -0.169192
lfoot -11.6608 12.8739
ltoes -1.63854
2512
root -29.7221 17.1134 0.269568 32.4016 84.9842 -686.124
lowerback 7.43813 1.0427 -4.99109
upperback -1.51138 0.929776 0.225209
thorax -5.84895 0.635105 2.92679
lowerneck -20.0751 3.17894 5.75134
upperneck 19.7373 3.78083 -4.44495
head 9.77156 1.70566 -1.96208
rclavicle -1.04952e-014 -5.96354e-016
rhumerus -41.8009 4.47216 -85.9661
rradius 35.3851
rwrist 0.27895
rhand -6.69714 -32.7856
rfingers 7.12502
rthumb 19.1621 -61.8617
lclavicle -1.04952e-014 -5.96354e-016
lhumerus -34.5109 -13.4287 89.1567
lradius 37.4909
lwrist 1.84683
lhand -14.7238 -21.804
lfingers 7.12502
lthumb 11.4312 7.86436
rfemur 7.93058 -7.42664 13.8463
rtibia 4.34193
rfoot -17.4045 -6.05001
rtoes 12.8924
lfemur 10.0604 4.72737 -20.2206
ltibia -0.0811749
lfoot -11.7128 12.6619
ltoes -1.97936
2513
root -29.7224 17.1121 0.271365 31.6019 85.041 -687.021
lowerback 7.37283 1.02256 -4.81861
upperback -1.5608 0.919604 0.18647
thorax -5.8586 0.624562 2.79068
lowerneck -20.08 3.17965 5.78188
upperneck 19.869 3.74915 -4.32255
head 9.81544 1.70861 -1.92925
rclavicle 8.54463e-015 0
rhumerus -41.8368 4.35453 -86.0477
rradius 35.2566
rwrist 0.325616
rhand -6.80472 -32.2407
rfingers 7.12502
rthumb 19.0586 -61.3269
lclavicle 8.54463e-015 0
lhumerus -34.6816 -13.7061 89.3909
lradius 37.5125
lwrist 2.00523
lhand -14.7899 -21.7469
lfingers 7.12502
lthumb 11.3674 7.92497
rfemur 7.87533 -7.74128 13.9035
rtibia 4.33698
rfoot -17.2928 -5.88791
rtoes 12.1044
lfemur 10.0793 4.46163 -20.2022
ltibia -0.326829
lfoot -11.6065 12.9301
ltoes -1.79632
2514
root -29.7258 17.1081 0.27567 30.3153 85.0554 -688.409
lowerback 7.3544 1.02666 -4.71085
upperback -1.61936 0.934614 0.18276
thorax -5.90887 0.63028 2.72401
lowerneck -20.0916 3.20196 5.74438
upperneck 19.9865 3.75198 -4.13764
head 9.85487 1.72947 -1.85788
rclavicle 1.03337e-014 -1.21259e-014
rhumerus -41.9011 4.22608 -86.0885
rradius 35.2237
rwrist 0.37209
rhand -6.92642 -31.9227
rfingers 7.12502
rthumb 18.9416 -61.0204
lclavicle 1.03337e-014 -1.21259e-014
lhumerus -34.8282 -13.9431 89.6446
lradius 37.4873
lwrist 2.07789
lhand -14.5829 -21.9536
lfingers 7.12502
lthumb 11.567 7.70717
rfemur 7.79576 -7.74651 14.0818
rtibia 4.25917
rfoot -17.2743 -5.90263
rtoes 11.8013
lfemur 10.0875 4.10368 -20.1864
ltibia -0.579884
lfoot -11.5275 13.3351
ltoes -1.33609
2515
root -29.7303 17.1069 0.279852 30.9485 84.931 -687.822
lowerback 7.39495 1.05645 -4.83752
upperback -1.66749 0.956276 0.129892
thorax -5.98653 0.647187 2.73623
lowerneck -19.9984 3.21103 5.80713
upperneck 19.9515 3.74468 -4.11673
head 9.82596 1.73461 -1.86243
rclavicle -2.36367e-015 -1.88845e-015
rhumerus -42.015 4.18275 -86.1473
rradius 35.2899
rwrist 0.288308
rhand -6.93505 -32.0833
rfingers 7.12502
rthumb 18.9333 -61.1818
lclavicle -2.36367e-015 -1.88845e-015
lhumerus -35.0129 -14.1657 89.9648
lradius 37.4774
lwrist 2.05413
lhand -14.8108 -22.0635
lfingers 7.12502
lthumb 11.3472 7.6095
rfemur 7.7421 -7.721 13.981
rtibia 4.20768
rfoot -17.2873 -5.8521
rtoes 11.5695
lfemur 10.0811 3.98222 -20.3656
ltibia -0.704445
lfoot -11.4761 13.5325
ltoes -1.5907
2516
root -29.7326 17.1056 0.284981 31.1952 84.8173 -687.632
lowerback 7.39093 1.06968 -4.94856
upperback -1.71903 0.961572 0.115067
thorax -6.04143 0.655807 2.78208
lowerneck -19.8435 3.20192 5.7538
upperneck 19.9308 3.74794 -4.07205
head 9.78846 1.73979 -1.83848
rclavicle 1.11785e-014 2.88238e-015
rhumerus -42.119 4.24745 -86.2069
rradius 35.2954
rwrist 0.210288
rhand -6.91903 -32.2883
rfingers 7.12502
rthumb 18.9487 -61.3853
lclavicle 1.11785e-014 2.88238e-015
lhumerus -35.1759 -14.0731 90.2181
lradius 37.4379
lwrist 2.04137
lhand -14.4925 -22.2535
lfingers 7.12502
lthumb 11.6542 7.40236
rfemur 7.67667 -7.71809 13.9252
rtibia 4.18112
rfoot -17.2718 -5.78501
rtoes 11.5037
lfemur 10.0741 3.99173 -20.4527
ltibia -0.817858
lfoot -11.4149 13.6359
ltoes -2.37316
2517
root -29.7331 17.1029 0.291223 31.2786 84.7148 -687.653
lowerback 7.26236 1.06869 -5.03685
upperback -1.73481 0.958257 0.1008
thorax -5.98612 0.656239 2.81855
lowerneck -19.9595 3.23702 5.6537
upperneck 20.0948 3.78607 -3.90033
head 9.86427 1.76937 -1.75562
rclavicle 1.02281e-014 1.89839e-014
rhumerus -42.0908 4.22766 -86.2507
rradius 35.2158
rwrist 0.25905
rhand -6.94685 -32.3042
rfingers 7.12502
rthumb 18.9219 -61.4038
lclavicle 1.02281e-014 1.89839e-014
lhumerus -35.2154 -13.9254 90.4316
lradius 37.2816
lwrist 1.74937
lhand -14.6054 -22.2925
lfingers 7.12502
lthumb 11.5453 7.36951
rfemur 7.59267 -7.63339 13.9251
rtibia 4.09515
rfoot -17.2196 -5.81101
rtoes 11.9695
lfemur 9.97359 4.0743 -20.4717
ltibia -0.831059
lfoot -11.4688 13.6201
ltoes -2.10187
